<svg xmlns="http://www.w3.org/2000/svg" width="366.7453mm" height="87.998085mm" viewBox="0 0 366.7453 87.998085"><path d="M0 0c-2.502 0-4.53 1.803-4.53 4.03 0 2.224 2.028 4.025 4.53 4.025 2.5 0 4.526-1.801 4.526-4.025C4.526 1.803 2.5 0 0 0m-.008 10.873c-4.658 0-8.432-3.069-8.432-6.851 0-3.778 3.774-6.848 8.432-6.848 4.664 0 8.442 3.07 8.442 6.848 0 3.782-3.778 6.851-8.442 6.851" style="fill:#727272;fill-opacity:1;fill-rule:nonzero;stroke:none" transform="matrix(1.09493 0 0 -1.09493 16.722 29.638)"/><path d="M0 0c0 2.497 1.736 4.525 3.893 4.525 2.149 0 3.888-2.028 3.888-4.525 0-2.502-1.739-4.526-3.888-4.526C1.736-4.526 0-2.502 0 0m15.834 2.111v-4.09h-4.443c.186.63.294 1.293.294 1.979 0 .734-.116 1.441-.33 2.111zM9.786-4.798h6.048v-3.269h3.902V6.66c0 .643-.536 1.161-1.199 1.161h-2.703V4.93H9.658C8.232 6.41 6.182 7.345 3.897 7.345-.414 7.345-3.899 4.056-3.899 0c0-4.057 3.485-7.345 7.796-7.345 2.354 0 4.46.989 5.889 2.547" style="fill:#727272;fill-opacity:1;fill-rule:nonzero;stroke:none" transform="matrix(1.09493 0 0 -1.09493 4.27 8.981)"/><path d="M0 0h-2.702v-19.058c-3.513-.936-7.981-1.107-8.703-1.072l-12.011-.01v-2.806h9.857c5.384 0 8.627.661 10.857 1.42v-6.902H1.2v27.269C1.2-.52.659 0 0 0" style="fill:#727272;fill-opacity:1;fill-rule:nonzero;stroke:none" transform="matrix(1.09493 0 0 -1.09493 89.774 .424)"/><path d="M0 0h4.996v-11.909h3.902V9.222c0 .647-.537 1.165-1.2 1.165H4.996v-7.57H0Z" style="fill:#727272;fill-opacity:1;fill-rule:nonzero;stroke:none" transform="matrix(1.09493 0 0 -1.09493 111.898 11.798)"/><path d="M0 0c2.183-3.498 6.827-6.208 6.827-6.208l2.287 2.345C2.275.417 1.91 3.981 1.955 7.517v.053h5.963v2.819H-7.917V7.57h5.965v-.053c.047-3.536-.325-7.1-7.161-11.38l2.287-2.345S-2.18-3.498 0 0" style="fill:#727272;fill-opacity:1;fill-rule:nonzero;stroke:none" transform="matrix(1.09493 0 0 -1.09493 104.845 13.045)"/><path d="m0 0-.002-.001v5.027h-3.9V-.603c0-1.838 1.541-3.326 3.431-3.326h15.013v2.82H1.094C.486-1.077 0-.594 0 0" style="fill:#727272;fill-opacity:1;fill-rule:nonzero;stroke:none" transform="matrix(1.09493 0 0 -1.09493 105.998 27.263)"/><path d="M0 0c-2.499 0-4.526 1.803-4.526 4.029 0 2.228 2.027 4.028 4.526 4.028 2.503 0 4.529-1.8 4.529-4.028C4.529 1.803 2.503 0 0 0m-.006 10.873c-4.659 0-8.434-3.067-8.434-6.848 0-3.781 3.775-6.847 8.434-6.847 4.665 0 8.437 3.066 8.437 6.847 0 3.781-3.772 6.848-8.437 6.848" style="fill:#727272;fill-opacity:1;fill-rule:nonzero;stroke:none" transform="matrix(1.09493 0 0 -1.09493 140.781 29.645)"/><path d="M0 0v5.239c0 .645-.541 1.165-1.205 1.165h-2.699V-4.22c-4.135-.936-9.31-1.225-10.148-1.247-2.125-.054-3.105.097-3.134 2.11l.004 5.784h9.629v2.816h-13.533v-8.675c-.011-3.485 1.397-4.898 5.027-5.062 2.509-.112 8.63.857 12.155 1.701v-2.694H0v6.671h4.143V0Z" style="fill:#727272;fill-opacity:1;fill-rule:nonzero;stroke:none" transform="matrix(1.09493 0 0 -1.09493 150.093 7.436)"/><path d="M0 0c0 2.571 1.635 4.651 3.665 4.651 2.021 0 3.658-2.08 3.658-4.651 0-2.572-1.637-4.649-3.658-4.649C1.635-4.649 0-2.572 0 0m18.236 8.739c0 .641-.538 1.159-1.2 1.159h-2.701V-9.163c-3.508-.933-7.973-1.103-8.692-1.069h-.025v3.022C8.845-6.36 11.23-3.459 11.23 0a7.384 7.384 0 0 1-1.65 4.651h2.869v2.817H5.618v2.818H1.713V7.468H-5.12V4.651h2.87A7.37 7.37 0 0 1-3.904 0c0-3.459 2.383-6.358 5.617-7.21v-3.031h-8.086v-2.813l9.861.001c5.378 0 8.62.663 10.847 1.421v-6.892h3.901v16.246h4.444V.538h-4.444z" style="fill:#727272;fill-opacity:1;fill-rule:nonzero;stroke:none" transform="matrix(1.09493 0 0 -1.09493 37.367 11.262)"/><path d="M0 0c2.422 0 4.392-2.432 4.392-5.426 0-2.998-1.97-5.426-4.392-5.426-2.427 0-4.393 2.428-4.393 5.426C-4.393-2.432-2.427 0 0 0m.005-13.674c4.58 0 8.3 3.695 8.3 8.249 0 4.553-3.72 8.251-8.3 8.251-4.588 0-8.308-3.698-8.308-8.251 0-4.554 3.72-8.249 8.308-8.249" style="fill:#727272;fill-opacity:1;fill-rule:nonzero;stroke:none" transform="matrix(1.09493 0 0 -1.09493 74.066 4.063)"/><path d="M0 0c12.766-3.275 26.286-8.881 42.704-12.877 9.091 2.601 18.413 6.104 28.013 10.583C83.49 3.665 95.558 6.55 106.586 7.459H-55.968c3.114-.155 6.229-.317 9.339-.55C-30.192 5.678-15.956 4.096 0 0" style="fill:#80bf26;fill-opacity:1;fill-rule:nonzero;stroke:none" transform="matrix(1.09493 0 0 -1.09493 169.788 52.865)"/><path d="M0 0c27.186-9.545 55.391-11.176 86.291-2.339-16.418 3.996-29.939 9.601-42.705 12.877-15.955 4.096-30.192 5.677-46.628 6.909-3.11.233-6.225.395-9.339.55h-97.92V5.293c5.704 2.274 11.589 4.262 17.546 5.759C-61.25 18.97-29.991 10.53 0 0" style="fill:#e4007f;fill-opacity:1;fill-rule:nonzero;stroke:none" transform="matrix(1.09493 0 0 -1.09493 122.064 64.403)"/><path d="M0 0c26.507-2.191 44.302-14.605 46.897-16.129L57.345 0Z" style="fill:#e4007f;fill-opacity:1;fill-rule:nonzero;stroke:none" transform="matrix(1.09493 0 0 -1.09493 303.957 44.698)"/><path d="M0 0c-11.028-.909-23.096-3.794-35.869-9.753-9.6-4.479-18.922-7.982-28.013-10.583 7.788-1.895 16.225-3.43 25.55-4.179 19.306-1.55 30.912 2.566 47.598 7.1 34.297 9.32 53.583 1.286 53.583 1.286C60.253-14.605 42.458-2.191 15.951 0Z" style="fill:#00a1e9;fill-opacity:1;fill-rule:nonzero;stroke:none" transform="matrix(1.09493 0 0 -1.09493 286.491 44.698)"/><path d="M0 0c-16.686-4.534-28.292-8.65-47.598-7.1-9.325.749-17.761 2.284-25.549 4.179-30.9-8.837-59.105-7.205-86.291 2.339-29.991 10.53-61.25 18.971-92.755 11.052-5.957-1.497-11.842-3.485-17.546-5.758v-.008s80.862-2 136.505-15.645c55.644-13.644 76.737-13.833 108.776-5.824C7.609-8.756 28.675 1.261 53.583 1.286 53.583 1.286 34.298 9.32 0 0" style="fill:#1d2088;fill-opacity:1;fill-rule:nonzero;stroke:none" transform="matrix(1.09493 0 0 -1.09493 296.636 63.766)"/></svg>